<?xml version="1.0" encoding="utf-8"?>
<svg version="1.1"
     xmlns="http://www.w3.org/2000/svg" xmlns:xlink="http://www.w3.org/1999/xlink" xmlns:a="http://ns.adobe.com/AdobeSVGViewerExtensions/3.0/"
     x="0px" y="0px" width="16px" height="16px" viewBox="-297 389 16 16" style="overflow:visible;enable-background:new -297 389 16 16"
     xml:space="preserve" preserveAspectRatio="xMinYMid meet">
<style type="text/css">
    .st0{fill:#999999;}
</style>
<path class="st0" d="M-294.722,404h4.104l0.037-0.103c-1.064,0-0.828,0-1.004-0.103c-0.282-0.103-0.462-0.308-0.35-0.616
    c0.075-0.205,0.235-0.371,0.528-0.884c0.181-0.205,0.304-0.295,0.996-1.295h4.257l0.159,0.987c0.032,0.205,0.082,0.339,0.008,0.545
    c-0.005,0.308-0.071,0.478-0.108,0.58c-0.112,0.308-0.099,0.496-0.349,0.598c-0.25,0.103-0.907,0.087-0.945,0.19l-0.037,0.1h5.321
    l0.037-0.103c0,0-0.472-0.103-0.573-0.411c-0.101-0.308-0.166-0.815-0.182-1.944l-0.723-9.542h-0.532l-7.929,9.953
    c-0.617,0.821-1.244,1.229-1.425,1.434c-0.468,0.411-0.344,0.55-1.408,0.55l-0.037,0.062H-294.722z M-289.719,400l3.194-4h0.213
    l0.318,4H-289.719z"/>
<g>
    <path d="M-293.932,393.932c-0.184,0.15-0.36,0.257-0.529,0.318c-0.169,0.062-0.352,0.093-0.546,0.093
        c-0.321,0-0.567-0.075-0.739-0.227s-0.258-0.344-0.258-0.58c0-0.138,0.032-0.264,0.097-0.378c0.065-0.114,0.15-0.206,0.256-0.274
        s0.224-0.121,0.356-0.157c0.097-0.024,0.244-0.048,0.44-0.071c0.399-0.046,0.694-0.101,0.882-0.165
        c0.002-0.065,0.003-0.107,0.003-0.125c0-0.195-0.047-0.332-0.14-0.411c-0.126-0.108-0.314-0.162-0.563-0.162
        c-0.233,0-0.405,0.04-0.516,0.118s-0.193,0.218-0.246,0.418l-0.484-0.064c0.044-0.2,0.116-0.361,0.217-0.484
        c0.101-0.123,0.247-0.217,0.437-0.284s0.412-0.1,0.663-0.1c0.249,0,0.452,0.028,0.607,0.085s0.271,0.128,0.344,0.213
        c0.073,0.086,0.125,0.194,0.154,0.325c0.017,0.081,0.025,0.228,0.025,0.44v0.637c0,0.444,0.01,0.725,0.032,0.842
        c0.021,0.118,0.062,0.23,0.125,0.338h-0.517C-293.885,394.18-293.917,394.064-293.932,393.932z M-293.974,392.866
        c-0.18,0.071-0.449,0.131-0.808,0.18c-0.204,0.028-0.347,0.06-0.432,0.096c-0.084,0.035-0.149,0.087-0.195,0.155
        c-0.046,0.068-0.068,0.144-0.068,0.227c0,0.127,0.05,0.233,0.149,0.318c0.1,0.085,0.246,0.127,0.438,0.127
        c0.191,0,0.36-0.04,0.509-0.121c0.148-0.08,0.257-0.19,0.327-0.33c0.053-0.108,0.08-0.267,0.08-0.478V392.866z"/>
    <path d="M-292.25,394.279h-0.459v-3.888h0.495v1.387c0.209-0.253,0.476-0.379,0.8-0.379c0.18,0,0.35,0.035,0.51,0.105
        c0.16,0.07,0.292,0.168,0.396,0.294s0.185,0.279,0.244,0.458c0.059,0.178,0.088,0.369,0.088,0.573c0,0.482-0.124,0.856-0.371,1.119
        c-0.248,0.264-0.544,0.395-0.891,0.395c-0.344,0-0.615-0.139-0.811-0.416V394.279z M-292.255,392.85
        c0,0.338,0.048,0.582,0.143,0.732c0.156,0.246,0.367,0.369,0.632,0.369c0.216,0,0.403-0.09,0.561-0.271
        c0.157-0.181,0.236-0.452,0.236-0.811c0-0.368-0.076-0.639-0.227-0.814c-0.151-0.175-0.334-0.263-0.548-0.263
        c-0.216,0-0.403,0.091-0.561,0.272C-292.176,392.245-292.255,392.507-292.255,392.85z"/>
    <path d="M-287.67,393.248l0.486,0.061c-0.053,0.324-0.189,0.577-0.408,0.76s-0.488,0.274-0.807,0.274
        c-0.4,0-0.721-0.126-0.964-0.378c-0.243-0.252-0.364-0.613-0.364-1.083c0-0.304,0.052-0.57,0.157-0.798
        c0.104-0.229,0.264-0.399,0.477-0.513c0.213-0.114,0.446-0.171,0.697-0.171c0.317,0,0.577,0.078,0.778,0.232
        c0.202,0.155,0.331,0.375,0.388,0.659l-0.48,0.072c-0.046-0.189-0.127-0.332-0.244-0.427c-0.116-0.095-0.256-0.143-0.421-0.143
        c-0.25,0-0.452,0.086-0.607,0.259c-0.156,0.172-0.234,0.445-0.234,0.818c0,0.378,0.075,0.653,0.226,0.825
        c0.15,0.171,0.346,0.257,0.588,0.257c0.194,0,0.356-0.057,0.486-0.172C-287.787,393.663-287.705,393.486-287.67,393.248z"/>
</g>
</svg>